# MagicaVoxel @ Ephtracy

# material
mtllib Book.mtl
usemtl palette

# normals
vn -1 0 0
vn 1 0 0
vn 0 0 1
vn 0 0 -1
vn 0 -1 0
vn 0 1 0

# texcoords
vt 0.0332031 0.5
vt 0.533203 0.5

# verts
v -10 0 11
v -10 0 1
v -10 1 11
v -10 1 1
v -9 1 10
v -9 1 2
v -9 2 10
v -9 2 2
v -8 2 10
v -8 2 2
v -8 3 10
v -8 3 2
v -1 0 11
v -1 0 10
v -1 0 2
v -1 0 1
v -1 1 11
v -1 1 10
v -1 1 3
v -1 1 2
v -1 1 1
v -1 2 3
v -1 2 2
v 0 2 10
v 0 2 2
v 0 3 10
v 0 3 2
v -3 2 10
v -3 2 2
v -3 3 10
v -3 3 2
v -2 0 11
v -2 0 10
v -2 0 2
v -2 0 1
v -2 1 11
v -2 1 10
v -2 1 3
v -2 1 2
v -2 1 1
v -2 2 3
v -2 2 2
v 5 2 10
v 5 2 2
v 5 3 10
v 5 3 2
v 6 1 10
v 6 1 2
v 6 2 10
v 6 2 2
v 7 0 11
v 7 0 1
v 7 1 11
v 7 1 1
v -10 0 11
v -10 1 11
v -2 0 11
v -2 1 11
v -1 0 11
v -1 1 11
v 7 0 11
v 7 1 11
v -9 1 10
v -9 2 10
v -8 2 10
v -8 3 10
v -3 2 10
v -3 3 10
v -2 0 10
v -2 1 10
v -1 0 10
v -1 1 10
v 0 2 10
v 0 3 10
v 5 2 10
v 5 3 10
v 6 1 10
v 6 2 10
v -2 1 3
v -2 2 3
v -1 1 3
v -1 2 3
v -9 1 2
v -9 2 2
v -8 2 2
v -8 3 2
v -3 2 2
v -3 3 2
v -2 0 2
v -2 1 2
v -2 2 2
v -1 0 2
v -1 1 2
v -1 2 2
v 0 2 2
v 0 3 2
v 5 2 2
v 5 3 2
v 6 1 2
v 6 2 2
v -10 0 1
v -10 1 1
v -2 0 1
v -2 1 1
v -1 0 1
v -1 1 1
v 7 0 1
v 7 1 1
v -10 0 11
v -2 0 11
v -1 0 11
v 7 0 11
v -2 0 10
v -1 0 10
v -2 0 2
v -1 0 2
v -10 0 1
v -2 0 1
v -1 0 1
v 7 0 1
v -10 1 11
v -2 1 11
v -1 1 11
v 7 1 11
v -9 1 10
v -2 1 10
v -1 1 10
v 6 1 10
v -2 1 3
v -1 1 3
v -9 1 2
v -2 1 2
v -1 1 2
v 6 1 2
v -10 1 1
v -2 1 1
v -1 1 1
v 7 1 1
v -9 2 10
v -8 2 10
v -3 2 10
v 0 2 10
v 5 2 10
v 6 2 10
v -2 2 3
v -1 2 3
v -9 2 2
v -8 2 2
v -3 2 2
v -2 2 2
v -1 2 2
v 0 2 2
v 5 2 2
v 6 2 2
v -8 3 10
v -3 3 10
v 0 3 10
v 5 3 10
v -8 3 2
v -3 3 2
v 0 3 2
v 5 3 2

# faces
f 3/2/1 2/2/1 1/2/1
f 4/2/1 2/2/1 3/2/1
f 7/1/1 6/1/1 5/1/1
f 8/1/1 6/1/1 7/1/1
f 11/1/1 10/1/1 9/1/1
f 12/1/1 10/1/1 11/1/1
f 17/2/1 14/2/1 13/2/1
f 18/2/1 14/2/1 17/2/1
f 20/2/1 16/2/1 15/2/1
f 21/2/1 16/2/1 20/2/1
f 22/1/1 20/1/1 19/1/1
f 23/1/1 20/1/1 22/1/1
f 26/1/1 25/1/1 24/1/1
f 27/1/1 25/1/1 26/1/1
f 28/1/2 29/1/2 30/1/2
f 30/1/2 29/1/2 31/1/2
f 32/2/2 33/2/2 36/2/2
f 36/2/2 33/2/2 37/2/2
f 34/2/2 35/2/2 39/2/2
f 39/2/2 35/2/2 40/2/2
f 38/1/2 39/1/2 41/1/2
f 41/1/2 39/1/2 42/1/2
f 43/1/2 44/1/2 45/1/2
f 45/1/2 44/1/2 46/1/2
f 47/1/2 48/1/2 49/1/2
f 49/1/2 48/1/2 50/1/2
f 51/2/2 52/2/2 53/2/2
f 53/2/2 52/2/2 54/2/2
f 57/2/3 56/2/3 55/2/3
f 58/2/3 56/2/3 57/2/3
f 61/2/3 60/2/3 59/2/3
f 62/2/3 60/2/3 61/2/3
f 65/1/3 64/1/3 63/1/3
f 67/1/3 65/1/3 63/1/3
f 67/1/3 66/1/3 65/1/3
f 68/1/3 66/1/3 67/1/3
f 70/1/3 67/1/3 63/1/3
f 71/2/3 70/2/3 69/2/3
f 72/1/3 67/1/3 70/1/3
f 72/2/3 70/2/3 71/2/3
f 73/1/3 67/1/3 72/1/3
f 75/1/3 73/1/3 72/1/3
f 75/1/3 74/1/3 73/1/3
f 76/1/3 74/1/3 75/1/3
f 77/1/3 75/1/3 72/1/3
f 78/1/3 75/1/3 77/1/3
f 79/1/4 80/1/4 81/1/4
f 81/1/4 80/1/4 82/1/4
f 83/1/4 84/1/4 85/1/4
f 83/1/4 85/1/4 87/1/4
f 85/1/4 86/1/4 87/1/4
f 87/1/4 86/1/4 88/1/4
f 83/1/4 87/1/4 90/1/4
f 90/1/4 87/1/4 91/1/4
f 89/2/4 90/2/4 92/2/4
f 92/2/4 90/2/4 93/2/4
f 93/1/4 94/1/4 95/1/4
f 93/1/4 95/1/4 97/1/4
f 95/1/4 96/1/4 97/1/4
f 97/1/4 96/1/4 98/1/4
f 93/1/4 97/1/4 99/1/4
f 99/1/4 97/1/4 100/1/4
f 101/2/4 102/2/4 103/2/4
f 103/2/4 102/2/4 104/2/4
f 105/2/4 106/2/4 107/2/4
f 107/2/4 106/2/4 108/2/4
f 113/2/5 110/2/5 109/2/5
f 114/2/5 112/2/5 111/2/5
f 115/2/5 113/2/5 109/2/5
f 115/2/5 114/2/5 113/2/5
f 116/2/5 112/2/5 114/2/5
f 116/2/5 114/2/5 115/2/5
f 117/2/5 115/2/5 109/2/5
f 118/2/5 115/2/5 117/2/5
f 119/2/5 112/2/5 116/2/5
f 120/2/5 112/2/5 119/2/5
f 121/2/6 122/2/6 125/2/6
f 125/2/6 122/2/6 126/2/6
f 123/2/6 124/2/6 127/2/6
f 127/2/6 124/2/6 128/2/6
f 121/2/6 125/2/6 131/2/6
f 129/2/6 130/2/6 132/2/6
f 132/2/6 130/2/6 133/2/6
f 128/2/6 124/2/6 134/2/6
f 121/2/6 131/2/6 135/2/6
f 131/2/6 132/2/6 135/2/6
f 135/2/6 132/2/6 136/2/6
f 133/2/6 134/2/6 137/2/6
f 134/2/6 124/2/6 138/2/6
f 137/2/6 134/2/6 138/2/6
f 141/1/6 142/1/6 145/1/6
f 145/1/6 142/1/6 146/1/6
f 139/1/6 140/1/6 147/1/6
f 147/1/6 140/1/6 148/1/6
f 141/1/6 145/1/6 149/1/6
f 149/1/6 145/1/6 150/1/6
f 146/1/6 142/1/6 151/1/6
f 151/1/6 142/1/6 152/1/6
f 143/1/6 144/1/6 153/1/6
f 153/1/6 144/1/6 154/1/6
f 155/1/6 156/1/6 159/1/6
f 159/1/6 156/1/6 160/1/6
f 157/1/6 158/1/6 161/1/6
f 161/1/6 158/1/6 162/1/6
