# MagicaVoxel @ Ephtracy

# material
mtllib Lantern.mtl
usemtl palette

# normals
vn -1 0 0
vn 1 0 0
vn 0 0 1
vn 0 0 -1
vn 0 -1 0
vn 0 1 0

# texcoords
vt 0.0605469 0.5
vt 0.0878906 0.5
vt 0.533203 0.5
vt 0.537109 0.5
vt 0.962891 0.5

# verts
v -3 2 8
v -3 2 7
v -3 7 8
v -3 7 7
v -2 0 9
v -2 0 6
v -2 1 9
v -2 1 8
v -2 1 7
v -2 1 6
v -2 2 8
v -2 2 7
v -2 7 8
v -2 7 7
v -2 8 8
v -2 8 7
v -1 0 10
v -1 0 9
v -1 0 6
v -1 0 5
v -1 1 10
v -1 1 9
v -1 1 8
v -1 1 7
v -1 1 6
v -1 1 5
v -1 2 9
v -1 2 8
v -1 2 7
v -1 2 6
v -1 3 9
v -1 3 8
v -1 5 9
v -1 5 8
v -1 6 9
v -1 6 8
v -1 6 7
v -1 6 6
v -1 7 8
v -1 7 7
v -1 8 8
v -1 8 7
v -1 9 8
v -1 9 7
v 0 6 9
v 0 6 8
v 0 6 7
v 0 6 6
v 0 7 9
v 0 7 8
v 0 7 7
v 0 7 6
v 0 8 8
v 0 8 7
v 0 9 8
v 0 9 7
v 0 23 8
v 0 23 7
v 2 7 8
v 2 7 7
v 2 8 8
v 2 8 7
v 3 2 8
v 3 2 7
v 3 7 8
v 3 7 7
v -2 2 8
v -2 2 7
v -2 7 8
v -2 7 7
v -1 7 8
v -1 7 7
v -1 8 8
v -1 8 7
v 1 6 9
v 1 6 8
v 1 6 7
v 1 6 6
v 1 7 9
v 1 7 8
v 1 7 7
v 1 7 6
v 1 8 8
v 1 8 7
v 1 9 8
v 1 9 7
v 1 23 8
v 1 23 7
v 2 0 10
v 2 0 9
v 2 0 6
v 2 0 5
v 2 1 10
v 2 1 9
v 2 1 8
v 2 1 7
v 2 1 6
v 2 1 5
v 2 2 9
v 2 2 8
v 2 2 7
v 2 2 6
v 2 4 9
v 2 4 8
v 2 5 9
v 2 5 8
v 2 6 9
v 2 6 8
v 2 6 7
v 2 6 6
v 2 7 8
v 2 7 7
v 2 8 8
v 2 8 7
v 2 9 8
v 2 9 7
v 3 0 9
v 3 0 6
v 3 1 9
v 3 1 8
v 3 1 7
v 3 1 6
v 3 2 8
v 3 2 7
v 3 7 8
v 3 7 7
v 3 8 8
v 3 8 7
v 4 2 8
v 4 2 7
v 4 7 8
v 4 7 7
v -1 0 10
v -1 1 10
v 2 0 10
v 2 1 10
v -2 0 9
v -2 1 9
v -1 0 9
v -1 1 9
v -1 2 9
v -1 3 9
v -1 5 9
v -1 6 9
v 0 4 9
v 0 5 9
v 0 6 9
v 0 7 9
v 1 3 9
v 1 4 9
v 1 5 9
v 1 6 9
v 1 7 9
v 2 0 9
v 2 1 9
v 2 2 9
v 2 4 9
v 2 5 9
v 2 6 9
v 3 0 9
v 3 1 9
v -3 2 8
v -3 7 8
v -2 1 8
v -2 2 8
v -2 7 8
v -2 8 8
v -1 1 8
v -1 2 8
v -1 6 8
v -1 7 8
v -1 8 8
v -1 9 8
v 0 6 8
v 0 7 8
v 0 8 8
v 0 9 8
v 0 23 8
v 1 6 8
v 1 7 8
v 1 8 8
v 1 9 8
v 1 23 8
v 2 1 8
v 2 2 8
v 2 6 8
v 2 7 8
v 2 8 8
v 2 9 8
v 3 1 8
v 3 2 8
v 3 7 8
v 3 8 8
v 4 2 8
v 4 7 8
v -3 2 7
v -3 7 7
v -2 1 7
v -2 2 7
v -2 7 7
v -2 8 7
v -1 1 7
v -1 2 7
v -1 6 7
v -1 7 7
v -1 8 7
v -1 9 7
v 0 6 7
v 0 7 7
v 0 8 7
v 0 9 7
v 0 23 7
v 1 6 7
v 1 7 7
v 1 8 7
v 1 9 7
v 1 23 7
v 2 1 7
v 2 2 7
v 2 6 7
v 2 7 7
v 2 8 7
v 2 9 7
v 3 1 7
v 3 2 7
v 3 7 7
v 3 8 7
v 4 2 7
v 4 7 7
v -2 0 6
v -2 1 6
v -1 0 6
v -1 1 6
v -1 2 6
v -1 6 6
v 0 6 6
v 0 7 6
v 1 6 6
v 1 7 6
v 2 0 6
v 2 1 6
v 2 2 6
v 2 6 6
v 3 0 6
v 3 1 6
v -1 0 5
v -1 1 5
v 2 0 5
v 2 1 5
v -1 0 10
v 2 0 10
v -2 0 9
v -1 0 9
v 2 0 9
v 3 0 9
v -2 0 6
v -1 0 6
v 2 0 6
v 3 0 6
v -1 0 5
v 2 0 5
v -3 2 8
v -2 2 8
v 3 2 8
v 4 2 8
v -3 2 7
v -2 2 7
v 3 2 7
v 4 2 7
v -2 7 8
v -1 7 8
v 2 7 8
v 3 7 8
v -2 7 7
v -1 7 7
v 2 7 7
v 3 7 7
v -1 8 8
v 0 8 8
v 1 8 8
v 2 8 8
v -1 8 7
v 0 8 7
v 1 8 7
v 2 8 7
v -1 1 10
v 2 1 10
v -2 1 9
v -1 1 9
v 2 1 9
v 3 1 9
v -2 1 8
v -1 1 8
v 2 1 8
v 3 1 8
v -2 1 7
v -1 1 7
v 2 1 7
v 3 1 7
v -2 1 6
v -1 1 6
v 2 1 6
v 3 1 6
v -1 1 5
v 2 1 5
v -2 2 8
v -1 2 8
v 2 2 8
v 3 2 8
v -2 2 7
v -1 2 7
v 2 2 7
v 3 2 7
v -1 6 9
v 0 6 9
v 1 6 9
v 2 6 9
v -1 6 8
v 0 6 8
v 1 6 8
v 2 6 8
v -1 6 7
v 0 6 7
v 1 6 7
v 2 6 7
v -1 6 6
v 0 6 6
v 1 6 6
v 2 6 6
v 0 7 9
v 1 7 9
v -3 7 8
v -2 7 8
v -1 7 8
v 0 7 8
v 1 7 8
v 2 7 8
v 3 7 8
v 4 7 8
v -3 7 7
v -2 7 7
v -1 7 7
v 0 7 7
v 1 7 7
v 2 7 7
v 3 7 7
v 4 7 7
v 0 7 6
v 1 7 6
v -2 8 8
v -1 8 8
v 2 8 8
v 3 8 8
v -2 8 7
v -1 8 7
v 2 8 7
v 3 8 7
v -1 9 8
v 0 9 8
v 1 9 8
v 2 9 8
v -1 9 7
v 0 9 7
v 1 9 7
v 2 9 7
v 0 23 8
v 1 23 8
v 0 23 7
v 1 23 7

# faces
f 3/4/1 2/4/1 1/4/1
f 4/4/1 2/4/1 3/4/1
f 7/4/1 6/4/1 5/4/1
f 8/4/1 6/4/1 7/4/1
f 9/4/1 6/4/1 8/4/1
f 10/4/1 6/4/1 9/4/1
f 11/4/1 9/4/1 8/4/1
f 12/4/1 9/4/1 11/4/1
f 15/4/1 14/4/1 13/4/1
f 16/4/1 14/4/1 15/4/1
f 21/4/1 18/4/1 17/4/1
f 22/4/1 18/4/1 21/4/1
f 25/4/1 20/4/1 19/4/1
f 26/4/1 20/4/1 25/4/1
f 27/4/1 23/4/1 22/4/1
f 28/4/1 23/4/1 27/4/1
f 29/4/1 25/4/1 24/4/1
f 30/4/1 25/4/1 29/4/1
f 31/2/1 28/2/1 27/2/1
f 31/2/1 29/2/1 28/2/1
f 31/2/1 30/2/1 29/2/1
f 32/2/1 30/2/1 31/2/1
f 33/1/1 32/1/1 31/1/1
f 34/2/1 30/2/1 32/2/1
f 34/1/1 32/1/1 33/1/1
f 35/2/1 34/2/1 33/2/1
f 36/2/1 30/2/1 34/2/1
f 36/2/1 34/2/1 35/2/1
f 37/2/1 30/2/1 36/2/1
f 38/2/1 30/2/1 37/2/1
f 39/4/1 37/4/1 36/4/1
f 40/4/1 37/4/1 39/4/1
f 43/4/1 42/4/1 41/4/1
f 44/4/1 42/4/1 43/4/1
f 49/4/1 46/4/1 45/4/1
f 50/4/1 46/4/1 49/4/1
f 51/4/1 48/4/1 47/4/1
f 52/4/1 48/4/1 51/4/1
f 53/4/1 51/4/1 50/4/1
f 54/4/1 51/4/1 53/4/1
f 57/1/1 56/1/1 55/1/1
f 58/1/1 56/1/1 57/1/1
f 61/4/1 60/4/1 59/4/1
f 62/4/1 60/4/1 61/4/1
f 65/4/1 64/4/1 63/4/1
f 66/4/1 64/4/1 65/4/1
f 67/4/2 68/4/2 69/4/2
f 69/4/2 68/4/2 70/4/2
f 71/4/2 72/4/2 73/4/2
f 73/4/2 72/4/2 74/4/2
f 75/4/2 76/4/2 79/4/2
f 79/4/2 76/4/2 80/4/2
f 77/4/2 78/4/2 81/4/2
f 81/4/2 78/4/2 82/4/2
f 80/4/2 81/4/2 83/4/2
f 83/4/2 81/4/2 84/4/2
f 85/1/2 86/1/2 87/1/2
f 87/1/2 86/1/2 88/1/2
f 89/4/2 90/4/2 93/4/2
f 93/4/2 90/4/2 94/4/2
f 91/4/2 92/4/2 97/4/2
f 97/4/2 92/4/2 98/4/2
f 94/4/2 95/4/2 99/4/2
f 99/4/2 95/4/2 100/4/2
f 96/4/2 97/4/2 101/4/2
f 101/4/2 97/4/2 102/4/2
f 99/2/2 100/2/2 103/2/2
f 100/2/2 101/2/2 103/2/2
f 101/2/2 102/2/2 103/2/2
f 103/2/2 102/2/2 104/2/2
f 103/1/2 104/1/2 105/1/2
f 104/2/2 102/2/2 106/2/2
f 105/1/2 104/1/2 106/1/2
f 105/5/2 106/5/2 107/5/2
f 106/2/2 102/2/2 108/2/2
f 107/5/2 106/5/2 108/5/2
f 108/2/2 102/2/2 109/2/2
f 109/2/2 102/2/2 110/2/2
f 108/4/2 109/4/2 111/4/2
f 111/4/2 109/4/2 112/4/2
f 113/4/2 114/4/2 115/4/2
f 115/4/2 114/4/2 116/4/2
f 117/4/2 118/4/2 119/4/2
f 119/4/2 118/4/2 120/4/2
f 120/4/2 118/4/2 121/4/2
f 121/4/2 118/4/2 122/4/2
f 120/4/2 121/4/2 123/4/2
f 123/4/2 121/4/2 124/4/2
f 125/4/2 126/4/2 127/4/2
f 127/4/2 126/4/2 128/4/2
f 129/4/2 130/4/2 131/4/2
f 131/4/2 130/4/2 132/4/2
f 135/4/3 134/4/3 133/4/3
f 136/4/3 134/4/3 135/4/3
f 139/4/3 138/4/3 137/4/3
f 140/4/3 138/4/3 139/4/3
f 145/1/3 143/1/3 142/1/3
f 146/2/3 144/2/3 143/2/3
f 146/1/3 143/1/3 145/1/3
f 147/2/3 144/2/3 146/2/3
f 149/1/3 145/1/3 142/1/3
f 149/2/3 142/2/3 141/2/3
f 150/5/3 146/5/3 145/5/3
f 150/1/3 145/1/3 149/1/3
f 151/1/3 147/1/3 146/1/3
f 151/5/3 146/5/3 150/5/3
f 152/4/3 148/4/3 147/4/3
f 152/1/3 147/1/3 151/1/3
f 153/4/3 148/4/3 152/4/3
f 155/4/3 141/4/3 140/4/3
f 156/2/3 150/2/3 149/2/3
f 156/2/3 149/2/3 141/2/3
f 156/4/3 141/4/3 155/4/3
f 157/1/3 151/1/3 150/1/3
f 157/2/3 150/2/3 156/2/3
f 158/5/3 152/5/3 151/5/3
f 158/1/3 151/1/3 157/1/3
f 159/5/3 152/5/3 158/5/3
f 160/4/3 155/4/3 154/4/3
f 161/4/3 155/4/3 160/4/3
f 165/4/3 163/4/3 162/4/3
f 166/4/3 163/4/3 165/4/3
f 168/4/3 165/4/3 164/4/3
f 169/4/3 165/4/3 168/4/3
f 171/4/3 167/4/3 166/4/3
f 172/4/3 167/4/3 171/4/3
f 174/4/3 171/4/3 170/4/3
f 175/4/3 171/4/3 174/4/3
f 176/4/3 173/4/3 172/4/3
f 177/4/3 173/4/3 176/4/3
f 180/4/3 176/4/3 175/4/3
f 180/4/3 177/4/3 176/4/3
f 181/4/3 177/4/3 180/4/3
f 182/1/3 178/1/3 177/1/3
f 182/4/3 177/4/3 181/4/3
f 183/1/3 178/1/3 182/1/3
f 186/4/3 180/4/3 179/4/3
f 187/4/3 180/4/3 186/4/3
f 188/4/3 182/4/3 181/4/3
f 189/4/3 182/4/3 188/4/3
f 190/4/3 185/4/3 184/4/3
f 191/4/3 185/4/3 190/4/3
f 192/4/3 188/4/3 187/4/3
f 193/4/3 188/4/3 192/4/3
f 194/4/3 192/4/3 191/4/3
f 195/4/3 192/4/3 194/4/3
f 196/4/4 197/4/4 199/4/4
f 199/4/4 197/4/4 200/4/4
f 198/4/4 199/4/4 202/4/4
f 202/4/4 199/4/4 203/4/4
f 200/4/4 201/4/4 205/4/4
f 205/4/4 201/4/4 206/4/4
f 204/4/4 205/4/4 208/4/4
f 208/4/4 205/4/4 209/4/4
f 206/4/4 207/4/4 210/4/4
f 210/4/4 207/4/4 211/4/4
f 209/4/4 210/4/4 214/4/4
f 210/4/4 211/4/4 214/4/4
f 214/4/4 211/4/4 215/4/4
f 211/1/4 212/1/4 216/1/4
f 215/4/4 211/4/4 216/4/4
f 216/1/4 212/1/4 217/1/4
f 213/4/4 214/4/4 220/4/4
f 220/4/4 214/4/4 221/4/4
f 215/4/4 216/4/4 222/4/4
f 222/4/4 216/4/4 223/4/4
f 218/4/4 219/4/4 224/4/4
f 224/4/4 219/4/4 225/4/4
f 221/4/4 222/4/4 226/4/4
f 226/4/4 222/4/4 227/4/4
f 225/4/4 226/4/4 228/4/4
f 228/4/4 226/4/4 229/4/4
f 230/4/4 231/4/4 232/4/4
f 232/4/4 231/4/4 233/4/4
f 234/2/4 235/2/4 236/2/4
f 234/2/4 236/2/4 238/2/4
f 236/4/4 237/4/4 238/4/4
f 238/4/4 237/4/4 239/4/4
f 233/4/4 234/4/4 241/4/4
f 234/2/4 238/2/4 242/2/4
f 241/4/4 234/4/4 242/4/4
f 242/2/4 238/2/4 243/2/4
f 240/4/4 241/4/4 244/4/4
f 244/4/4 241/4/4 245/4/4
f 246/4/4 247/4/4 248/4/4
f 248/4/4 247/4/4 249/4/4
f 253/4/5 251/4/5 250/4/5
f 254/4/5 251/4/5 253/4/5
f 256/4/5 253/4/5 252/4/5
f 257/3/5 254/3/5 253/3/5
f 257/4/5 253/4/5 256/4/5
f 258/4/5 255/4/5 254/4/5
f 258/3/5 254/3/5 257/3/5
f 259/4/5 255/4/5 258/4/5
f 260/4/5 258/4/5 257/4/5
f 261/4/5 258/4/5 260/4/5
f 266/4/5 263/4/5 262/4/5
f 267/4/5 263/4/5 266/4/5
f 268/4/5 265/4/5 264/4/5
f 269/4/5 265/4/5 268/4/5
f 274/4/5 271/4/5 270/4/5
f 275/4/5 271/4/5 274/4/5
f 276/4/5 273/4/5 272/4/5
f 277/4/5 273/4/5 276/4/5
f 282/4/5 279/4/5 278/4/5
f 283/4/5 279/4/5 282/4/5
f 284/4/5 281/4/5 280/4/5
f 285/4/5 281/4/5 284/4/5
f 286/4/6 287/4/6 289/4/6
f 289/4/6 287/4/6 290/4/6
f 288/4/6 289/4/6 292/4/6
f 292/4/6 289/4/6 293/4/6
f 290/4/6 291/4/6 294/4/6
f 294/4/6 291/4/6 295/4/6
f 296/4/6 297/4/6 300/4/6
f 300/4/6 297/4/6 301/4/6
f 298/4/6 299/4/6 302/4/6
f 302/4/6 299/4/6 303/4/6
f 301/4/6 302/4/6 304/4/6
f 304/4/6 302/4/6 305/4/6
f 306/4/6 307/4/6 310/4/6
f 310/4/6 307/4/6 311/4/6
f 308/4/6 309/4/6 312/4/6
f 312/4/6 309/4/6 313/4/6
f 314/2/6 315/2/6 318/2/6
f 318/2/6 315/2/6 319/2/6
f 316/5/6 317/5/6 320/5/6
f 320/5/6 317/5/6 321/5/6
f 322/2/6 323/2/6 326/2/6
f 326/2/6 323/2/6 327/2/6
f 324/2/6 325/2/6 328/2/6
f 328/2/6 325/2/6 329/2/6
f 330/4/6 331/4/6 335/4/6
f 335/4/6 331/4/6 336/4/6
f 332/4/6 333/4/6 340/4/6
f 340/4/6 333/4/6 341/4/6
f 334/4/6 335/4/6 342/4/6
f 342/4/6 335/4/6 343/4/6
f 336/4/6 337/4/6 344/4/6
f 344/4/6 337/4/6 345/4/6
f 338/4/6 339/4/6 346/4/6
f 346/4/6 339/4/6 347/4/6
f 343/4/6 344/4/6 348/4/6
f 348/4/6 344/4/6 349/4/6
f 350/4/6 351/4/6 354/4/6
f 354/4/6 351/4/6 355/4/6
f 352/4/6 353/4/6 356/4/6
f 356/4/6 353/4/6 357/4/6
f 358/4/6 359/4/6 362/4/6
f 362/4/6 359/4/6 363/4/6
f 360/4/6 361/4/6 364/4/6
f 364/4/6 361/4/6 365/4/6
f 366/1/6 367/1/6 368/1/6
f 368/1/6 367/1/6 369/1/6
